<mxfile host="app.diagrams.net" modified="2020-12-06T18:13:15.042Z" agent="5.0 (Windows NT 10.0; Win64; x64) AppleWebKit/537.36 (KHTML, like Gecko) Chrome/87.0.4280.88 Safari/537.36" etag="ChR7IWPUOaCK6pl6g14Q" version="13.10.9" type="github">
  <diagram id="C5RBs43oDa-KdzZeNtuy" name="Page-1">
    <mxGraphModel dx="1848" dy="567" grid="1" gridSize="10" guides="1" tooltips="1" connect="1" arrows="1" fold="1" page="1" pageScale="1" pageWidth="827" pageHeight="1169" math="0" shadow="0">
      <root>
        <mxCell id="WIyWlLk6GJQsqaUBKTNV-0" />
        <mxCell id="WIyWlLk6GJQsqaUBKTNV-1" parent="WIyWlLk6GJQsqaUBKTNV-0" />
        <mxCell id="p69-t-SJny9sylriIYUg-12" value="" style="rounded=0;whiteSpace=wrap;html=1;sketch=0;gradientColor=none;fontColor=#5AA9E6;fillColor=none;strokeColor=#0000CC;" vertex="1" parent="WIyWlLk6GJQsqaUBKTNV-1">
          <mxGeometry x="-303" y="200" width="270" height="450" as="geometry" />
        </mxCell>
        <mxCell id="p69-t-SJny9sylriIYUg-75" value="" style="edgeStyle=orthogonalEdgeStyle;curved=0;rounded=1;sketch=0;orthogonalLoop=1;jettySize=auto;html=1;strokeColor=#FF6392;fillColor=#FFE45E;fontColor=#5AA9E6;" edge="1" parent="WIyWlLk6GJQsqaUBKTNV-1" source="p69-t-SJny9sylriIYUg-13" target="p69-t-SJny9sylriIYUg-16">
          <mxGeometry relative="1" as="geometry" />
        </mxCell>
        <mxCell id="p69-t-SJny9sylriIYUg-144" style="edgeStyle=orthogonalEdgeStyle;curved=0;rounded=1;sketch=0;orthogonalLoop=1;jettySize=auto;html=1;entryX=1;entryY=0.5;entryDx=0;entryDy=0;strokeColor=#FF6392;fillColor=#FFE45E;fontColor=#5AA9E6;" edge="1" parent="WIyWlLk6GJQsqaUBKTNV-1" source="p69-t-SJny9sylriIYUg-13" target="p69-t-SJny9sylriIYUg-133">
          <mxGeometry relative="1" as="geometry">
            <Array as="points">
              <mxPoint x="-543" y="250" />
              <mxPoint x="-543" y="540" />
            </Array>
          </mxGeometry>
        </mxCell>
        <mxCell id="p69-t-SJny9sylriIYUg-13" value="Pre-Trained&lt;br&gt;Layer_1" style="rounded=0;whiteSpace=wrap;html=1;sketch=0;strokeColor=#6c8ebf;fillColor=#dae8fc;" vertex="1" parent="WIyWlLk6GJQsqaUBKTNV-1">
          <mxGeometry x="-280" y="220" width="120" height="60" as="geometry" />
        </mxCell>
        <mxCell id="p69-t-SJny9sylriIYUg-148" style="edgeStyle=orthogonalEdgeStyle;curved=0;rounded=1;sketch=0;orthogonalLoop=1;jettySize=auto;html=1;entryX=1;entryY=0.5;entryDx=0;entryDy=0;strokeColor=#FF6392;fillColor=#FFE45E;fontColor=#5AA9E6;" edge="1" parent="WIyWlLk6GJQsqaUBKTNV-1" source="p69-t-SJny9sylriIYUg-14" target="p69-t-SJny9sylriIYUg-137">
          <mxGeometry relative="1" as="geometry" />
        </mxCell>
        <mxCell id="p69-t-SJny9sylriIYUg-14" value="Pre-Trained&lt;br&gt;Layer_4" style="rounded=0;whiteSpace=wrap;html=1;sketch=0;strokeColor=#6c8ebf;fillColor=#dae8fc;" vertex="1" parent="WIyWlLk6GJQsqaUBKTNV-1">
          <mxGeometry x="-280" y="500" width="120" height="60" as="geometry" />
        </mxCell>
        <mxCell id="p69-t-SJny9sylriIYUg-108" value="" style="edgeStyle=orthogonalEdgeStyle;curved=0;rounded=1;sketch=0;orthogonalLoop=1;jettySize=auto;html=1;strokeColor=#FF6392;fillColor=#FFE45E;fontColor=#5AA9E6;" edge="1" parent="WIyWlLk6GJQsqaUBKTNV-1" source="p69-t-SJny9sylriIYUg-15" target="p69-t-SJny9sylriIYUg-14">
          <mxGeometry relative="1" as="geometry" />
        </mxCell>
        <mxCell id="p69-t-SJny9sylriIYUg-147" style="edgeStyle=orthogonalEdgeStyle;curved=0;rounded=1;sketch=0;orthogonalLoop=1;jettySize=auto;html=1;exitX=0;exitY=0.5;exitDx=0;exitDy=0;entryX=1;entryY=0.5;entryDx=0;entryDy=0;strokeColor=#FF6392;fillColor=#FFE45E;fontColor=#5AA9E6;" edge="1" parent="WIyWlLk6GJQsqaUBKTNV-1" source="p69-t-SJny9sylriIYUg-15" target="p69-t-SJny9sylriIYUg-135">
          <mxGeometry relative="1" as="geometry">
            <Array as="points">
              <mxPoint x="-463" y="430" />
              <mxPoint x="-463" y="720" />
            </Array>
          </mxGeometry>
        </mxCell>
        <mxCell id="p69-t-SJny9sylriIYUg-15" value="Pre-Trained&lt;br&gt;Layer_3" style="rounded=0;whiteSpace=wrap;html=1;sketch=0;strokeColor=#6c8ebf;fillColor=#dae8fc;" vertex="1" parent="WIyWlLk6GJQsqaUBKTNV-1">
          <mxGeometry x="-280" y="400" width="120" height="60" as="geometry" />
        </mxCell>
        <mxCell id="p69-t-SJny9sylriIYUg-76" value="" style="edgeStyle=orthogonalEdgeStyle;curved=0;rounded=1;sketch=0;orthogonalLoop=1;jettySize=auto;html=1;strokeColor=#FF6392;fillColor=#FFE45E;fontColor=#5AA9E6;" edge="1" parent="WIyWlLk6GJQsqaUBKTNV-1" source="p69-t-SJny9sylriIYUg-16" target="p69-t-SJny9sylriIYUg-15">
          <mxGeometry relative="1" as="geometry" />
        </mxCell>
        <mxCell id="p69-t-SJny9sylriIYUg-145" style="edgeStyle=orthogonalEdgeStyle;curved=0;rounded=1;sketch=0;orthogonalLoop=1;jettySize=auto;html=1;exitX=0;exitY=0.5;exitDx=0;exitDy=0;entryX=1;entryY=0.5;entryDx=0;entryDy=0;strokeColor=#FF6392;fillColor=#FFE45E;fontColor=#5AA9E6;" edge="1" parent="WIyWlLk6GJQsqaUBKTNV-1" source="p69-t-SJny9sylriIYUg-16" target="p69-t-SJny9sylriIYUg-134">
          <mxGeometry relative="1" as="geometry">
            <Array as="points">
              <mxPoint x="-280" y="350" />
              <mxPoint x="-503" y="350" />
              <mxPoint x="-503" y="630" />
            </Array>
          </mxGeometry>
        </mxCell>
        <mxCell id="p69-t-SJny9sylriIYUg-16" value="Pre-Trained&lt;br&gt;Layer_2" style="rounded=0;whiteSpace=wrap;html=1;sketch=0;strokeColor=#6c8ebf;fillColor=#dae8fc;" vertex="1" parent="WIyWlLk6GJQsqaUBKTNV-1">
          <mxGeometry x="-280" y="310" width="120" height="60" as="geometry" />
        </mxCell>
        <mxCell id="p69-t-SJny9sylriIYUg-69" style="edgeStyle=orthogonalEdgeStyle;curved=0;rounded=1;sketch=0;orthogonalLoop=1;jettySize=auto;html=1;exitX=0.5;exitY=1;exitDx=0;exitDy=0;entryX=0.5;entryY=0;entryDx=0;entryDy=0;strokeColor=#FF6392;fillColor=#FFE45E;fontColor=#5AA9E6;" edge="1" parent="WIyWlLk6GJQsqaUBKTNV-1" source="p69-t-SJny9sylriIYUg-23" target="p69-t-SJny9sylriIYUg-13">
          <mxGeometry relative="1" as="geometry" />
        </mxCell>
        <mxCell id="p69-t-SJny9sylriIYUg-23" value="&lt;div style=&quot;font-size: 15px&quot;&gt;&lt;font style=&quot;font-size: 15px&quot;&gt;Input&lt;/font&gt;&lt;/div&gt;&lt;div style=&quot;font-size: 15px&quot;&gt;&lt;font style=&quot;font-size: 15px&quot;&gt;416x416x3&lt;/font&gt;&lt;/div&gt;" style="text;html=1;strokeColor=none;fillColor=none;align=center;verticalAlign=middle;whiteSpace=wrap;rounded=0;sketch=0;fontColor=#5AA9E6;" vertex="1" parent="WIyWlLk6GJQsqaUBKTNV-1">
          <mxGeometry x="-270" y="120" width="100" height="50" as="geometry" />
        </mxCell>
        <mxCell id="p69-t-SJny9sylriIYUg-29" value="&lt;b&gt;52x52x512&lt;/b&gt;" style="text;html=1;strokeColor=none;fillColor=none;align=center;verticalAlign=middle;whiteSpace=wrap;rounded=0;sketch=0;fontColor=#5AA9E6;" vertex="1" parent="WIyWlLk6GJQsqaUBKTNV-1">
          <mxGeometry x="-110" y="380" width="40" height="20" as="geometry" />
        </mxCell>
        <mxCell id="p69-t-SJny9sylriIYUg-30" value="&lt;b&gt;104x104x256&lt;/b&gt;" style="text;html=1;strokeColor=none;fillColor=none;align=center;verticalAlign=middle;whiteSpace=wrap;rounded=0;sketch=0;fontColor=#5AA9E6;" vertex="1" parent="WIyWlLk6GJQsqaUBKTNV-1">
          <mxGeometry x="-110" y="290" width="40" height="20" as="geometry" />
        </mxCell>
        <mxCell id="p69-t-SJny9sylriIYUg-31" value="&lt;b&gt;26x26x1024&lt;/b&gt;" style="text;html=1;strokeColor=none;fillColor=none;align=center;verticalAlign=middle;whiteSpace=wrap;rounded=0;sketch=0;fontColor=#5AA9E6;" vertex="1" parent="WIyWlLk6GJQsqaUBKTNV-1">
          <mxGeometry x="-110" y="470" width="40" height="20" as="geometry" />
        </mxCell>
        <mxCell id="p69-t-SJny9sylriIYUg-57" value="&lt;b&gt;13x13x2048&lt;/b&gt;" style="text;html=1;strokeColor=none;fillColor=none;align=center;verticalAlign=middle;whiteSpace=wrap;rounded=0;sketch=0;fontColor=#5AA9E6;" vertex="1" parent="WIyWlLk6GJQsqaUBKTNV-1">
          <mxGeometry x="-110" y="570" width="40" height="20" as="geometry" />
        </mxCell>
        <mxCell id="p69-t-SJny9sylriIYUg-24" value="&lt;font style=&quot;font-size: 19px&quot;&gt;&lt;b&gt;Resnet 101&lt;/b&gt;&lt;/font&gt;" style="text;html=1;strokeColor=none;fillColor=none;align=center;verticalAlign=middle;whiteSpace=wrap;rounded=0;sketch=0;fontColor=#5AA9E6;" vertex="1" parent="WIyWlLk6GJQsqaUBKTNV-1">
          <mxGeometry x="-180" y="610" width="180" height="30" as="geometry" />
        </mxCell>
        <mxCell id="p69-t-SJny9sylriIYUg-131" value="" style="rounded=0;whiteSpace=wrap;html=1;sketch=0;fillColor=none;gradientColor=none;fontColor=#5AA9E6;strokeColor=#CC6600;" vertex="1" parent="WIyWlLk6GJQsqaUBKTNV-1">
          <mxGeometry x="-763" y="460" width="440" height="860" as="geometry" />
        </mxCell>
        <mxCell id="p69-t-SJny9sylriIYUg-132" value="&lt;font color=&quot;#ff8000&quot; size=&quot;1&quot;&gt;&lt;b style=&quot;font-size: 17px&quot;&gt;Midas Decoder&lt;/b&gt;&lt;/font&gt;" style="text;html=1;strokeColor=none;fillColor=none;align=center;verticalAlign=middle;whiteSpace=wrap;rounded=0;sketch=0;fontColor=#5AA9E6;" vertex="1" parent="WIyWlLk6GJQsqaUBKTNV-1">
          <mxGeometry x="-730" y="460" width="90" height="40" as="geometry" />
        </mxCell>
        <mxCell id="p69-t-SJny9sylriIYUg-166" style="edgeStyle=orthogonalEdgeStyle;curved=0;rounded=1;sketch=0;orthogonalLoop=1;jettySize=auto;html=1;exitX=0;exitY=0.5;exitDx=0;exitDy=0;entryX=0;entryY=0.5;entryDx=0;entryDy=0;strokeColor=#FF6392;fillColor=#FFE45E;fontColor=#5AA9E6;" edge="1" parent="WIyWlLk6GJQsqaUBKTNV-1" source="p69-t-SJny9sylriIYUg-133" target="p69-t-SJny9sylriIYUg-141">
          <mxGeometry relative="1" as="geometry">
            <Array as="points">
              <mxPoint x="-750" y="540" />
              <mxPoint x="-750" y="1230" />
            </Array>
          </mxGeometry>
        </mxCell>
        <mxCell id="p69-t-SJny9sylriIYUg-133" value="Scratch&lt;br&gt;Layer1_rn" style="rounded=1;whiteSpace=wrap;html=1;sketch=0;strokeColor=#d6b656;fillColor=#fff2cc;" vertex="1" parent="WIyWlLk6GJQsqaUBKTNV-1">
          <mxGeometry x="-697" y="510" width="120" height="60" as="geometry" />
        </mxCell>
        <mxCell id="p69-t-SJny9sylriIYUg-162" style="edgeStyle=orthogonalEdgeStyle;curved=0;rounded=1;sketch=0;orthogonalLoop=1;jettySize=auto;html=1;entryX=0;entryY=0.75;entryDx=0;entryDy=0;strokeColor=#FF6392;fillColor=#FFE45E;fontColor=#5AA9E6;" edge="1" parent="WIyWlLk6GJQsqaUBKTNV-1" source="p69-t-SJny9sylriIYUg-134" target="p69-t-SJny9sylriIYUg-140">
          <mxGeometry relative="1" as="geometry">
            <Array as="points">
              <mxPoint x="-730" y="630" />
              <mxPoint x="-730" y="1145" />
            </Array>
          </mxGeometry>
        </mxCell>
        <mxCell id="p69-t-SJny9sylriIYUg-134" value="Scratch&lt;br&gt;Layer2_rn" style="rounded=1;whiteSpace=wrap;html=1;sketch=0;strokeColor=#d6b656;fillColor=#fff2cc;" vertex="1" parent="WIyWlLk6GJQsqaUBKTNV-1">
          <mxGeometry x="-697" y="600" width="120" height="60" as="geometry" />
        </mxCell>
        <mxCell id="p69-t-SJny9sylriIYUg-161" style="edgeStyle=orthogonalEdgeStyle;curved=0;rounded=1;sketch=0;orthogonalLoop=1;jettySize=auto;html=1;entryX=0.62;entryY=0.671;entryDx=0;entryDy=0;entryPerimeter=0;strokeColor=#FF6392;fillColor=#FFE45E;fontColor=#5AA9E6;" edge="1" parent="WIyWlLk6GJQsqaUBKTNV-1" source="p69-t-SJny9sylriIYUg-135" target="p69-t-SJny9sylriIYUg-131">
          <mxGeometry relative="1" as="geometry">
            <Array as="points">
              <mxPoint x="-637" y="730" />
              <mxPoint x="-710" y="730" />
              <mxPoint x="-710" y="1040" />
            </Array>
          </mxGeometry>
        </mxCell>
        <mxCell id="p69-t-SJny9sylriIYUg-135" value="Scratch&lt;br&gt;Layer3_rn" style="rounded=1;whiteSpace=wrap;html=1;sketch=0;strokeColor=#d6b656;fillColor=#fff2cc;" vertex="1" parent="WIyWlLk6GJQsqaUBKTNV-1">
          <mxGeometry x="-697" y="690" width="120" height="60" as="geometry" />
        </mxCell>
        <mxCell id="p69-t-SJny9sylriIYUg-156" style="edgeStyle=orthogonalEdgeStyle;curved=0;rounded=1;sketch=0;orthogonalLoop=1;jettySize=auto;html=1;strokeColor=#FF6392;fillColor=#FFE45E;fontColor=#5AA9E6;" edge="1" parent="WIyWlLk6GJQsqaUBKTNV-1" source="p69-t-SJny9sylriIYUg-137" target="p69-t-SJny9sylriIYUg-138">
          <mxGeometry relative="1" as="geometry">
            <Array as="points">
              <mxPoint x="-423" y="820" />
            </Array>
          </mxGeometry>
        </mxCell>
        <mxCell id="p69-t-SJny9sylriIYUg-137" value="Scratch&lt;br&gt;Layer4_rn" style="rounded=1;whiteSpace=wrap;html=1;sketch=0;strokeColor=#d6b656;fillColor=#fff2cc;" vertex="1" parent="WIyWlLk6GJQsqaUBKTNV-1">
          <mxGeometry x="-697" y="780" width="120" height="60" as="geometry" />
        </mxCell>
        <mxCell id="p69-t-SJny9sylriIYUg-157" value="" style="edgeStyle=orthogonalEdgeStyle;curved=0;rounded=1;sketch=0;orthogonalLoop=1;jettySize=auto;html=1;strokeColor=#FF6392;fillColor=#FFE45E;fontColor=#5AA9E6;" edge="1" parent="WIyWlLk6GJQsqaUBKTNV-1" source="p69-t-SJny9sylriIYUg-138" target="p69-t-SJny9sylriIYUg-139">
          <mxGeometry relative="1" as="geometry" />
        </mxCell>
        <mxCell id="p69-t-SJny9sylriIYUg-138" value="Path4" style="rounded=1;whiteSpace=wrap;html=1;sketch=0;strokeColor=#d6b656;fillColor=#fff2cc;" vertex="1" parent="WIyWlLk6GJQsqaUBKTNV-1">
          <mxGeometry x="-483" y="900" width="120" height="60" as="geometry" />
        </mxCell>
        <mxCell id="p69-t-SJny9sylriIYUg-158" value="" style="edgeStyle=orthogonalEdgeStyle;curved=0;rounded=1;sketch=0;orthogonalLoop=1;jettySize=auto;html=1;strokeColor=#FF6392;fillColor=#FFE45E;fontColor=#5AA9E6;" edge="1" parent="WIyWlLk6GJQsqaUBKTNV-1" source="p69-t-SJny9sylriIYUg-139" target="p69-t-SJny9sylriIYUg-140">
          <mxGeometry relative="1" as="geometry" />
        </mxCell>
        <mxCell id="p69-t-SJny9sylriIYUg-139" value="Path3" style="rounded=1;whiteSpace=wrap;html=1;sketch=0;strokeColor=#d6b656;fillColor=#fff2cc;" vertex="1" parent="WIyWlLk6GJQsqaUBKTNV-1">
          <mxGeometry x="-483" y="1000" width="120" height="60" as="geometry" />
        </mxCell>
        <mxCell id="p69-t-SJny9sylriIYUg-159" value="" style="edgeStyle=orthogonalEdgeStyle;curved=0;rounded=1;sketch=0;orthogonalLoop=1;jettySize=auto;html=1;strokeColor=#FF6392;fillColor=#FFE45E;fontColor=#5AA9E6;" edge="1" parent="WIyWlLk6GJQsqaUBKTNV-1" source="p69-t-SJny9sylriIYUg-140" target="p69-t-SJny9sylriIYUg-141">
          <mxGeometry relative="1" as="geometry" />
        </mxCell>
        <mxCell id="p69-t-SJny9sylriIYUg-140" value="Path2" style="rounded=1;whiteSpace=wrap;html=1;sketch=0;strokeColor=#d6b656;fillColor=#fff2cc;" vertex="1" parent="WIyWlLk6GJQsqaUBKTNV-1">
          <mxGeometry x="-483" y="1100" width="120" height="60" as="geometry" />
        </mxCell>
        <mxCell id="p69-t-SJny9sylriIYUg-141" value="Path1" style="rounded=1;whiteSpace=wrap;html=1;sketch=0;strokeColor=#d6b656;fillColor=#fff2cc;" vertex="1" parent="WIyWlLk6GJQsqaUBKTNV-1">
          <mxGeometry x="-483" y="1200" width="120" height="60" as="geometry" />
        </mxCell>
        <mxCell id="p69-t-SJny9sylriIYUg-149" value="&lt;b&gt;&lt;font color=&quot;#ff8000&quot;&gt;104x104x256&lt;/font&gt;&lt;/b&gt;" style="text;html=1;strokeColor=none;fillColor=none;align=center;verticalAlign=middle;whiteSpace=wrap;rounded=0;sketch=0;fontColor=#5AA9E6;" vertex="1" parent="WIyWlLk6GJQsqaUBKTNV-1">
          <mxGeometry x="-557" y="570" width="40" height="20" as="geometry" />
        </mxCell>
        <mxCell id="p69-t-SJny9sylriIYUg-150" value="&lt;b&gt;&lt;font color=&quot;#ff8000&quot;&gt;26x26x256&lt;/font&gt;&lt;/b&gt;" style="text;html=1;strokeColor=none;fillColor=none;align=center;verticalAlign=middle;whiteSpace=wrap;rounded=0;sketch=0;fontColor=#5AA9E6;" vertex="1" parent="WIyWlLk6GJQsqaUBKTNV-1">
          <mxGeometry x="-557" y="750" width="40" height="20" as="geometry" />
        </mxCell>
        <mxCell id="p69-t-SJny9sylriIYUg-151" value="&lt;b&gt;&lt;font color=&quot;#ff8000&quot;&gt;13x13x256&lt;/font&gt;&lt;/b&gt;" style="text;html=1;strokeColor=none;fillColor=none;align=center;verticalAlign=middle;whiteSpace=wrap;rounded=0;sketch=0;fontColor=#5AA9E6;" vertex="1" parent="WIyWlLk6GJQsqaUBKTNV-1">
          <mxGeometry x="-557" y="830" width="40" height="20" as="geometry" />
        </mxCell>
        <mxCell id="p69-t-SJny9sylriIYUg-152" value="&lt;b&gt;&lt;font color=&quot;#ff8000&quot;&gt;52x52x256&lt;/font&gt;&lt;/b&gt;" style="text;html=1;strokeColor=none;fillColor=none;align=center;verticalAlign=middle;whiteSpace=wrap;rounded=0;sketch=0;fontColor=#5AA9E6;" vertex="1" parent="WIyWlLk6GJQsqaUBKTNV-1">
          <mxGeometry x="-563" y="660" width="40" height="20" as="geometry" />
        </mxCell>
        <mxCell id="p69-t-SJny9sylriIYUg-160" value="&lt;b&gt;&lt;font color=&quot;#ff8000&quot;&gt;208x208x256&lt;/font&gt;&lt;/b&gt;" style="text;html=1;strokeColor=none;fillColor=none;align=center;verticalAlign=middle;whiteSpace=wrap;rounded=0;sketch=0;fontColor=#5AA9E6;" vertex="1" parent="WIyWlLk6GJQsqaUBKTNV-1">
          <mxGeometry x="-400" y="1270" width="40" height="20" as="geometry" />
        </mxCell>
        <mxCell id="p69-t-SJny9sylriIYUg-163" value="&lt;b&gt;&lt;font color=&quot;#ff8000&quot;&gt;104x104x256&lt;/font&gt;&lt;/b&gt;" style="text;html=1;strokeColor=none;fillColor=none;align=center;verticalAlign=middle;whiteSpace=wrap;rounded=0;sketch=0;fontColor=#5AA9E6;" vertex="1" parent="WIyWlLk6GJQsqaUBKTNV-1">
          <mxGeometry x="-403" y="1169" width="40" height="20" as="geometry" />
        </mxCell>
        <mxCell id="p69-t-SJny9sylriIYUg-164" value="&lt;b&gt;&lt;font color=&quot;#ff8000&quot;&gt;52x52x256&lt;/font&gt;&lt;/b&gt;" style="text;html=1;strokeColor=none;fillColor=none;align=center;verticalAlign=middle;whiteSpace=wrap;rounded=0;sketch=0;fontColor=#5AA9E6;" vertex="1" parent="WIyWlLk6GJQsqaUBKTNV-1">
          <mxGeometry x="-403" y="1070" width="40" height="20" as="geometry" />
        </mxCell>
        <mxCell id="p69-t-SJny9sylriIYUg-165" value="&lt;b&gt;&lt;font color=&quot;#ff8000&quot;&gt;26x26x256&lt;/font&gt;&lt;/b&gt;" style="text;html=1;strokeColor=none;fillColor=none;align=center;verticalAlign=middle;whiteSpace=wrap;rounded=0;sketch=0;fontColor=#5AA9E6;" vertex="1" parent="WIyWlLk6GJQsqaUBKTNV-1">
          <mxGeometry x="-415" y="970" width="70" height="20" as="geometry" />
        </mxCell>
        <mxCell id="p69-t-SJny9sylriIYUg-167" value="&lt;b&gt;&lt;font color=&quot;#ff8000&quot;&gt;208x208x256&lt;/font&gt;&lt;/b&gt;" style="text;html=1;strokeColor=none;fillColor=none;align=center;verticalAlign=middle;whiteSpace=wrap;rounded=0;sketch=0;fontColor=#5AA9E6;" vertex="1" parent="WIyWlLk6GJQsqaUBKTNV-1">
          <mxGeometry x="-403" y="1320" width="40" height="20" as="geometry" />
        </mxCell>
      </root>
    </mxGraphModel>
  </diagram>
</mxfile>
